<?xml version="1.0" standalone="no"?>
<!DOCTYPE svg PUBLIC "-//W3C//DTD SVG 20010904//EN"
 "http://www.w3.org/TR/2001/REC-SVG-20010904/DTD/svg10.dtd">
<svg version="1.0" xmlns="http://www.w3.org/2000/svg"
 width="600.000000pt" height="600.000000pt" viewBox="0 0 600.000000 600.000000"
 preserveAspectRatio="xMidYMid meet">
<g transform="translate(0.000000,600.000000) scale(0.100000,-0.100000)"
fill="#000000" stroke="none">
<path d="M1390 3992 c0 -2 10 -12 23 -22 l22 -18 3 -439 c2 -241 1 -457 -3
-481 -3 -23 -15 -51 -26 -61 -19 -17 -14 -18 158 -14 214 5 313 21 410 67 128
61 226 178 260 310 22 86 14 251 -16 328 -61 159 -208 275 -396 312 -69 13
-435 28 -435 18z m178 -17 c-7 -8 -128 -8 -135 -1 -4 3 27 6 67 6 40 0 71 -2
68 -5z m90 -2 c-16 -2 -40 -2 -55 0 -16 2 -3 4 27 4 30 0 43 -2 28 -4z m59 1
c-3 -3 -12 -4 -19 -1 -8 3 -5 6 6 6 11 1 17 -2 13 -5z m-214 -44 c3 -11 1 -18
-3 -15 -5 3 -7 -12 -5 -32 3 -21 2 -29 -1 -18 -12 44 -27 74 -35 69 -5 -3 -9
0 -9 5 0 20 47 12 53 -9z m282 6 c112 -25 187 -67 270 -152 118 -120 146 -360
63 -543 -24 -54 -117 -148 -173 -176 -22 -11 -42 -23 -45 -26 -12 -16 -161
-40 -248 -40 -144 -1 -132 -44 -132 477 0 514 -10 474 123 474 45 -1 109 -7
142 -14z m105 -1 c19 -7 28 -13 20 -13 -8 0 -31 6 -50 13 -19 7 -28 13 -20 13
8 0 31 -6 50 -13z m-412 -895 c3 11 5 11 9 2 2 -6 8 -10 13 -7 4 3 6 -4 3 -15
-6 -22 -33 -28 -33 -7 0 8 -4 7 -11 -3 -9 -12 -10 -12 -5 3 3 10 7 220 8 465
l3 447 5 -450 c3 -247 7 -443 8 -435z m521 844 c4 3 8 -1 8 -9 0 -19 0 -19
-25 4 -12 10 -19 21 -15 25 4 4 11 0 16 -9 4 -8 12 -13 16 -11z m46 -24 c3 -6
-1 -7 -9 -4 -18 7 -21 14 -7 14 6 0 13 -4 16 -10z m31 -47 c0 -15 -3 -20 -10
-13 -14 14 -16 37 -2 37 7 0 12 -11 12 -24z m74 -69 c0 -2 -8 0 -19 5 -10 6
-22 7 -26 3 -5 -4 -5 -1 -1 6 5 9 12 9 27 2 10 -6 19 -13 19 -16z m12 -26 c-7
-7 -12 -8 -12 -2 0 14 12 26 19 19 2 -3 -1 -11 -7 -17z m-25 -10 c-3 -8 -6 -5
-6 6 -1 11 2 17 5 13 3 -3 4 -12 1 -19z m38 -40 l-3 -43 13 30 14 30 -2 -32
c-1 -17 -5 -29 -9 -26 -5 2 -8 -6 -8 -18 0 -53 -14 2 -19 74 -1 5 -6 5 -13 1
-7 -4 -8 -3 -4 5 4 6 12 9 17 6 5 -4 9 -1 9 4 0 6 2 11 4 11 3 0 3 -19 1 -42z
m44 -95 l-2 -38 -6 35 c-11 63 -22 5 -12 -65 6 -42 6 -76 -1 -99 -8 -24 -8
-43 0 -65 6 -17 7 -31 3 -31 -5 0 -11 10 -13 23 -7 34 -2 253 6 266 14 22 26
10 25 -26z m18 -135 c-2 -24 -4 -7 -4 37 0 44 2 63 4 43 2 -21 2 -57 0 -80z
m-20 40 c-3 -8 -6 -5 -6 6 -1 11 2 17 5 13 3 -3 4 -12 1 -19z m1 -103 c-1 -19
-5 -32 -9 -27 -7 7 -1 62 7 62 3 0 4 -16 2 -35z m-39 -136 c-18 -26 -38 -42
-24 -20 3 5 1 12 -5 16 -5 3 -10 11 -10 18 0 6 6 3 13 -7 13 -18 14 -18 21 -1
4 10 2 21 -4 25 -7 4 -8 18 -4 35 l7 27 13 -32 c13 -29 12 -35 -7 -61z m-61
-63 c-2 -17 -7 -22 -17 -18 -10 4 -11 7 -3 10 7 2 12 10 12 18 0 8 2 14 5 14
3 0 4 -11 3 -24z m-13 -38 c5 4 5 1 1 -6 -6 -10 -11 -10 -22 -1 -8 6 -14 14
-14 16 0 3 6 0 13 -6 8 -6 18 -7 22 -3z m-35 -13 c0 -2 -10 -9 -22 -15 -22
-11 -22 -10 -4 4 21 17 26 19 26 11z m-573 -37 c-3 -7 -5 -2 -5 12 0 14 2 19
5 13 2 -7 2 -19 0 -25z m61 -115 c-21 -2 -57 -2 -80 0 -24 2 -7 4 37 4 44 0
63 -2 43 -4z m135 0 c-7 -2 -21 -2 -30 0 -10 3 -4 5 12 5 17 0 24 -2 18 -5z"/>
<path d="M2026 3192 c-3 -5 1 -9 9 -9 8 0 12 4 9 9 -3 4 -7 8 -9 8 -2 0 -6 -4
-9 -8z"/>
<path d="M2170 3291 c0 -6 4 -13 10 -16 6 -3 7 1 4 9 -7 18 -14 21 -14 7z"/>
<path d="M2296 3971 l24 -24 0 -474 0 -474 -24 -22 -24 -22 95 0 c91 0 93 0
71 17 -23 17 -23 18 -26 308 l-3 291 78 -2 c99 -3 187 -29 227 -68 l31 -30 0
104 c0 58 -1 105 -2 105 -1 0 -15 -13 -31 -29 -36 -37 -111 -58 -219 -64 l-83
-4 0 171 c0 94 4 177 9 184 7 11 52 13 227 10 197 -4 224 -6 265 -25 26 -12
56 -32 68 -44 l21 -23 0 70 0 69 -364 0 -364 0 24 -24z m263 4 c-7 -7 -229 -8
-236 -1 -4 3 49 6 117 6 68 0 121 -2 119 -5z m417 -35 c2 -33 1 -33 -3 -4 l-4
32 -122 1 c-67 1 -123 4 -126 7 -3 2 53 3 125 2 l129 -3 1 -35z m-69 14 c-3
-3 -12 -4 -19 -1 -8 3 -5 6 6 6 11 1 17 -2 13 -5z m-547 -16 c0 6 7 12 15 12
13 0 15 -59 15 -475 0 -446 -1 -475 -17 -474 -11 0 -13 3 -5 6 9 4 12 105 11
461 0 257 -4 448 -9 437 -4 -11 -8 -215 -7 -453 1 -238 -1 -423 -4 -410 -5 20
-7 18 -10 -12 -2 -19 -4 179 -4 442 0 262 3 471 7 465 6 -9 8 -9 8 1z m359
-355 c0 -29 -2 -33 -8 -18 -7 18 -4 55 5 55 2 0 4 -17 3 -37z m-59 -3 c-8 -5
-26 -9 -40 -9 -23 1 -23 2 5 9 43 11 52 11 35 0z m35 -10 c3 -6 -4 -10 -17
-10 -18 0 -20 2 -8 10 19 12 18 12 25 0z m-302 -597 c-13 -2 -35 -2 -50 0 -16
2 -5 4 22 4 28 0 40 -2 28 -4z"/>
<path d="M3020 3988 c0 -5 8 -8 18 -8 25 0 65 -46 131 -150 96 -150 136 -214
174 -275 21 -33 44 -69 52 -80 13 -19 10 -27 -43 -101 -31 -45 -95 -137 -142
-205 -103 -150 -134 -186 -174 -204 -30 -13 -28 -13 40 -13 70 1 70 1 66 27
-3 20 19 60 91 168 85 127 168 244 187 266 4 4 27 -25 51 -65 24 -40 71 -116
105 -168 83 -129 107 -177 100 -206 -6 -23 -5 -23 84 -22 49 1 90 5 90 9 0 5
-8 9 -18 9 -36 0 -76 54 -266 360 -42 69 -82 132 -88 141 -9 13 1 33 47 100
32 46 99 143 149 214 97 140 145 195 170 195 9 0 16 3 16 8 0 4 -29 7 -65 7
-59 0 -83 -7 -54 -17 15 -5 -26 -79 -112 -203 -38 -55 -93 -135 -122 -177 -28
-43 -55 -78 -58 -78 -4 0 -9 8 -13 18 -3 9 -29 53 -57 97 -96 148 -189 308
-189 325 0 9 4 20 9 25 6 6 -25 10 -85 10 -51 0 -94 -3 -94 -7z m150 -15 c0
-5 -15 -8 -34 -8 -19 0 -38 3 -42 8 -4 4 11 7 34 7 23 0 42 -3 42 -7z m614 -8
c-4 -8 -7 -15 -9 -15 -2 0 -5 7 -9 15 -3 9 0 15 9 15 9 0 12 -6 9 -15z m-640
-26 c-2 -4 1 -9 8 -11 7 -3 8 -7 3 -10 -6 -3 -18 2 -27 11 -16 16 -16 17 2 17
10 0 17 -3 14 -7z m46 -52 c9 15 11 15 6 1 -3 -9 -2 -19 2 -21 4 -2 2 -2 -5
-1 -6 2 -13 -2 -15 -8 -2 -6 -9 3 -16 18 -11 26 -11 27 2 11 14 -18 15 -18 26
0z m60 -92 c0 -5 -5 -3 -10 5 -6 10 -10 11 -10 3 0 -7 -5 -13 -10 -13 -6 0 -5
8 2 20 9 14 14 16 20 7 4 -7 8 -16 8 -22z m36 -65 c2 -26 0 -28 -16 -20 -10 5
-20 19 -23 30 -3 11 -1 18 4 14 5 -3 9 -12 9 -20 0 -8 5 -14 10 -14 13 0 13
16 -1 43 -9 18 -9 20 2 10 7 -7 14 -26 15 -43z m53 -73 c0 -8 -2 -8 -6 1 -4
10 -8 10 -21 0 -15 -12 -16 -11 -3 4 14 19 32 15 30 -5z m18 -43 c-3 -3 -12
-4 -19 -1 -8 3 -5 6 6 6 11 1 17 -2 13 -5z m18 -34 c-5 20 -4 22 5 8 5 -9 7
-23 4 -32 -5 -13 -9 -12 -25 8 -26 33 -24 48 2 16 l20 -25 -6 25z m34 -57 c-7
-10 -14 -19 -15 -21 -1 -2 -4 4 -8 13 -3 9 -2 13 3 10 5 -3 12 -1 16 5 3 5 9
10 12 10 3 0 -1 -8 -8 -17z m44 -60 c-4 -11 -3 -14 5 -9 17 10 15 1 -4 -14
-12 -11 -15 -11 -12 1 2 8 -3 13 -9 12 -20 -4 -15 15 5 20 9 3 18 5 19 6 1 0
-1 -6 -4 -16z m32 -58 c1 -14 -2 -22 -5 -19 -3 3 -5 16 -5 29 -1 14 2 22 5 19
3 -3 5 -16 5 -29z m35 -29 c0 -3 -4 -8 -10 -11 -5 -3 -10 -1 -10 4 0 6 5 11
10 11 6 0 10 -2 10 -4z m24 -62 c3 -8 2 -12 -4 -9 -6 3 -10 10 -10 16 0 14 7
11 14 -7z m34 -39 c-3 -3 -9 2 -12 12 -6 14 -5 15 5 6 7 -7 10 -15 7 -18z
m-11 -37 c-3 -8 -6 -5 -6 6 -1 11 2 17 5 13 3 -3 4 -12 1 -19z m37 -31 c-4
-13 -2 -17 5 -13 7 5 9 1 5 -9 -4 -11 -2 -14 9 -9 8 3 18 1 22 -5 3 -7 0 -8
-9 -5 -9 3 -16 1 -16 -5 0 -6 5 -11 10 -11 6 0 10 -8 10 -17 -1 -11 -10 -3
-25 22 -14 22 -22 48 -19 58 3 9 1 17 -4 17 -5 0 -9 7 -9 16 0 14 2 14 14 -2
7 -10 10 -27 7 -37z m51 -97 c-3 -5 -1 -10 4 -10 6 0 11 -5 11 -11 0 -8 -5 -8
-15 1 -13 11 -12 30 1 30 3 0 2 -4 -1 -10z m27 -42 c-8 -8 -9 -4 -5 13 4 13 8
18 11 10 2 -7 -1 -18 -6 -23z m26 -22 c-8 -6 -13 -18 -11 -26 4 -13 3 -13 -6
0 -15 21 -14 30 5 30 9 0 12 5 8 12 -5 7 -3 8 6 3 10 -6 10 -10 -2 -19z m37
-29 c6 -5 3 -7 -7 -3 -20 6 -25 -10 -5 -17 7 -3 5 -6 -5 -6 -11 -1 -18 6 -18
17 0 22 11 35 19 25 3 -4 11 -12 16 -16z m-628 -43 c-3 -3 -12 -4 -19 -1 -8 3
-5 6 6 6 11 1 17 -2 13 -5z m626 -1 c-7 -2 -21 -2 -30 0 -10 3 -4 5 12 5 17 0
24 -2 18 -5z"/>
<path d="M3890 3988 c0 -5 5 -8 11 -8 5 0 17 -16 25 -35 11 -28 14 -112 14
-469 0 -279 -4 -445 -11 -463 -5 -15 -20 -36 -32 -45 -21 -17 -19 -18 63 -18
83 0 85 1 62 18 -13 10 -27 36 -32 57 -5 22 -10 231 -10 465 l0 425 34 -55
c41 -66 152 -239 296 -464 58 -89 146 -226 195 -304 58 -92 96 -142 107 -142
16 0 17 36 20 501 l3 501 23 18 c12 10 22 20 22 22 0 1 -31 3 -70 3 -38 0 -70
-2 -70 -4 0 -2 7 -9 15 -15 29 -21 35 -118 33 -491 l-3 -369 -100 157 c-55 87
-148 233 -207 325 -58 92 -138 217 -176 277 l-69 110 -72 5 c-39 3 -71 2 -71
-2z m129 -44 c-7 -9 -1 -19 21 -36 17 -13 32 -34 35 -47 3 -18 1 -20 -9 -12
-7 6 -16 9 -19 6 -4 -3 -5 -2 -2 2 3 3 0 12 -6 20 -6 7 -9 13 -5 13 3 0 -2 8
-11 18 -10 10 -24 17 -30 14 -7 -2 -13 1 -13 8 0 10 -3 10 -15 0 -12 -10 -15
-9 -15 5 0 14 6 16 30 11 17 -3 29 -2 26 2 -3 5 1 9 9 9 11 0 12 -4 4 -13z
m32 -21 c13 -16 12 -17 -3 -4 -17 13 -22 21 -14 21 2 0 10 -8 17 -17z m62
-127 c15 -18 23 -36 20 -40 -4 -3 -1 -6 5 -6 7 0 11 -3 11 -7 -3 -21 2 -34 11
-28 6 4 9 1 8 -6 -2 -7 2 -13 9 -14 16 0 28 -14 28 -33 0 -9 5 -16 12 -15 8 2
10 -4 6 -14 -4 -11 -3 -14 6 -9 6 4 11 4 10 -1 -3 -20 2 -34 11 -28 6 3 7 -1
4 -10 -4 -10 -2 -15 7 -13 9 2 13 -4 11 -16 -2 -10 1 -16 5 -13 5 3 10 -4 10
-16 1 -12 6 -23 11 -25 6 -2 8 -13 5 -25 -4 -17 -3 -19 6 -7 8 12 12 9 20 -13
6 -16 15 -25 21 -22 6 4 7 -1 3 -11 -5 -15 -7 -15 -16 1 -8 14 -11 15 -19 4
-6 -10 -7 -7 -3 10 5 16 4 21 -4 17 -6 -4 -13 0 -16 8 -3 9 -8 24 -12 34 -3 9
-7 20 -7 24 -2 16 -64 77 -72 70 -5 -4 -3 1 5 10 11 14 9 19 -7 29 -12 7 -18
19 -14 27 3 10 1 13 -7 8 -6 -4 -10 -4 -9 1 5 13 -38 63 -47 55 -5 -4 -5 -2
-1 5 6 12 -29 82 -49 95 -7 5 -6 8 1 8 7 0 23 -15 37 -34z m290 -431 c4 3 2
-1 -3 -7 -9 -10 -13 -10 -19 1 -5 7 -14 11 -20 7 -7 -5 -8 -1 -4 10 5 13 3 15
-7 9 -9 -6 -11 -4 -5 4 5 9 13 7 29 -8 12 -12 26 -19 29 -16z m22 -65 c15 -22
31 -38 35 -35 4 2 7 -6 6 -18 -1 -12 7 -29 18 -38 16 -13 17 -17 5 -24 -8 -5
-11 -5 -7 0 4 4 0 14 -10 21 -9 7 -18 17 -18 23 -1 6 -2 16 -3 22 0 5 -6 7
-13 3 -7 -5 -8 -3 -3 6 6 10 4 12 -10 6 -16 -6 -16 -4 -4 11 12 15 12 16 -3
10 -13 -4 -15 -2 -11 10 4 10 2 14 -5 9 -6 -3 -14 -1 -18 5 -5 8 -3 9 6 4 10
-6 12 -4 7 8 -10 27 -2 20 28 -23z m92 -126 c-7 -8 15 -33 25 -28 3 2 4 -4 1
-15 -3 -10 1 -22 8 -26 8 -6 10 -4 5 6 -4 8 2 3 13 -10 12 -13 22 -33 22 -45
1 -11 5 -3 9 19 l7 40 1 -35 c1 -33 -16 -91 -17 -61 -1 7 -15 31 -32 52 -17
22 -32 47 -34 57 -1 9 -7 16 -12 15 -5 -1 -10 7 -10 18 -1 10 3 19 9 19 6 0 9
-3 5 -6z m-540 -200 c-3 -3 -12 -4 -19 -1 -8 3 -5 6 6 6 11 1 17 -2 13 -5z"/>
<path d="M3241 3974 c0 -11 3 -14 6 -6 3 7 2 16 -1 19 -3 4 -6 -2 -5 -13z"/>
<path d="M1361 3914 c0 -11 3 -14 6 -6 3 7 2 16 -1 19 -3 4 -6 -2 -5 -13z"/>
<path d="M3130 3810 c0 -5 5 -10 11 -10 5 0 7 5 4 10 -3 6 -8 10 -11 10 -2 0
-4 -4 -4 -10z"/>
<path d="M3336 3767 c3 -10 9 -15 12 -12 3 3 0 11 -7 18 -10 9 -11 8 -5 -6z"/>
<path d="M3610 3620 c0 -5 5 -10 10 -10 6 0 10 5 10 10 0 6 -4 10 -10 10 -5 0
-10 -4 -10 -10z"/>
<path d="M3321 3514 c0 -11 3 -14 6 -6 3 7 2 16 -1 19 -3 4 -6 -2 -5 -13z"/>
<path d="M3585 3381 c-3 -5 -2 -12 3 -15 5 -3 9 1 9 9 0 17 -3 19 -12 6z"/>
<path d="M3405 3320 c3 -5 8 -10 11 -10 2 0 4 5 4 10 0 6 -5 10 -11 10 -5 0
-7 -4 -4 -10z"/>
<path d="M3216 3253 c-6 -14 -5 -15 5 -6 7 7 10 15 7 18 -3 3 -9 -2 -12 -12z"/>
<path d="M3550 3140 c0 -5 5 -10 11 -10 5 0 7 5 4 10 -3 6 -8 10 -11 10 -2 0
-4 -4 -4 -10z"/>
<path d="M4416 3135 c4 -8 11 -15 16 -15 6 0 5 6 -2 15 -7 8 -14 15 -16 15 -2
0 -1 -7 2 -15z"/>
<path d="M3600 3056 c0 -2 8 -10 18 -17 15 -13 16 -12 3 4 -13 16 -21 21 -21
13z"/>
<path d="M2245 3020 c-3 -5 -1 -10 4 -10 6 0 11 5 11 10 0 6 -2 10 -4 10 -3 0
-8 -4 -11 -10z"/>
<path d="M2440 2486 c0 -37 4 -66 10 -66 6 0 10 26 10 59 0 33 -4 63 -10 66
-6 4 -10 -18 -10 -59z"/>
<path d="M2480 2545 c0 -3 9 -14 21 -26 22 -22 20 -66 -4 -81 -6 -4 -8 -10 -4
-14 3 -4 13 -1 22 6 21 18 19 83 -3 103 -18 17 -32 22 -32 12z"/>
<path d="M2560 2487 c0 -37 3 -67 8 -67 9 0 9 116 -1 126 -4 4 -7 -23 -7 -59z"/>
<path d="M2606 2541 c-3 -5 1 -11 9 -15 9 -3 15 0 15 9 0 16 -16 20 -24 6z"/>
<path d="M2655 2484 c0 -36 4 -64 10 -64 6 0 10 27 10 60 0 33 -4 61 -10 64
-6 2 -10 -22 -10 -60z"/>
<path d="M2700 2540 c0 -5 7 -10 16 -10 8 0 12 5 9 10 -3 6 -10 10 -16 10 -5
0 -9 -4 -9 -10z"/>
<path d="M2750 2549 c-6 -55 -3 -129 5 -129 11 0 12 116 1 127 -3 3 -6 4 -6 2z"/>
<path d="M2897 2544 c-6 -6 79 -124 89 -124 11 0 1 20 -37 70 -23 30 -42 56
-43 58 -2 1 -5 -1 -9 -4z"/>
<path d="M2960 2539 c0 -5 4 -9 9 -9 5 0 12 -12 14 -27 l4 -28 2 28 c1 20 6
27 22 27 18 0 20 -5 18 -52 -2 -33 1 -53 9 -56 8 -2 12 14 12 57 0 51 -3 61
-17 62 -10 0 -30 2 -45 4 -16 2 -28 -1 -28 -6z"/>
<path d="M3062 2541 c4 -13 18 -16 19 -4 0 4 -5 9 -11 12 -7 2 -11 -2 -8 -8z"/>
<path d="M3170 2540 c0 -5 7 -10 15 -10 8 0 15 5 15 10 0 6 -7 10 -15 10 -8 0
-15 -4 -15 -10z"/>
<path d="M3220 2544 c0 -2 11 -22 25 -44 14 -22 25 -44 25 -49 0 -12 29 -35
36 -28 4 3 0 12 -8 20 -7 8 -22 32 -32 55 -10 22 -25 43 -32 46 -8 3 -14 3
-14 0z"/>
<path d="M3286 2541 c-4 -7 -5 -15 -2 -18 9 -9 19 4 14 18 -4 11 -6 11 -12 0z"/>
<path d="M3325 2543 c-14 -4 -6 -123 8 -123 8 0 11 16 9 48 -4 71 -6 79 -17
75z"/>
<path d="M3370 2548 c-1 -2 -2 -31 -3 -66 -2 -55 0 -62 17 -62 15 0 16 3 6 15
-8 10 -11 32 -8 60 3 25 2 48 -3 51 -5 3 -9 4 -9 2z"/>
<path d="M3459 2546 c-8 -9 3 -126 12 -126 11 0 10 118 -1 125 -4 2 -9 3 -11
1z"/>
<path d="M3490 2543 c0 -1 9 -7 20 -13 16 -8 20 -8 20 4 0 9 -8 14 -20 13 -11
-1 -20 -2 -20 -4z"/>
<path d="M2820 2531 c0 -17 45 -111 53 -111 10 0 0 33 -24 83 -19 36 -29 46
-29 28z"/>
<path d="M3128 2480 c2 -37 8 -60 15 -60 8 0 11 19 9 60 -2 37 -8 60 -15 60
-8 0 -11 -19 -9 -60z"/>
<path d="M2892 2490 c0 -14 2 -19 5 -12 2 6 2 18 0 25 -3 6 -5 1 -5 -13z"/>
<path d="M2600 2490 c0 -5 7 -10 16 -10 8 0 12 5 9 10 -3 6 -10 10 -16 10 -5
0 -9 -4 -9 -10z"/>
<path d="M2700 2490 c0 -5 5 -10 10 -10 6 0 10 5 10 10 0 6 -4 10 -10 10 -5 0
-10 -4 -10 -10z"/>
<path d="M3170 2490 c0 -5 7 -10 16 -10 8 0 12 5 9 10 -3 6 -10 10 -16 10 -5
0 -9 -4 -9 -10z"/>
<path d="M3502 2491 c4 -13 18 -16 19 -4 0 4 -5 9 -11 12 -7 2 -11 -2 -8 -8z"/>
<path d="M2800 2473 c0 -12 -4 -25 -10 -28 -12 -7 -13 -25 -2 -25 13 0 30 48
21 62 -6 9 -9 7 -9 -9z"/>
<path d="M2613 2443 c-18 -6 -16 -23 1 -23 17 0 30 16 19 23 -5 2 -14 2 -20 0z"/>
<path d="M3178 2433 c-8 -10 -3 -13 20 -13 16 0 32 6 35 13 3 7 -5 12 -20 12
-14 0 -29 -6 -35 -12z"/>
<path d="M3518 2443 c-24 -6 -23 -23 2 -23 11 0 20 7 20 15 0 8 -1 14 -2 14
-2 -1 -11 -3 -20 -6z"/>
<path d="M2890 2430 c0 -5 4 -10 9 -10 6 0 13 5 16 10 3 6 -1 10 -9 10 -9 0
-16 -4 -16 -10z"/>
<path d="M3410 2430 c0 -5 7 -10 15 -10 8 0 15 5 15 10 0 6 -7 10 -15 10 -8 0
-15 -4 -15 -10z"/>
<path d="M2706 2417 c3 -10 9 -15 12 -12 3 3 0 11 -7 18 -10 9 -11 8 -5 -6z"/>
<path d="M3167 2399 c7 -7 15 -10 18 -7 3 3 -2 9 -12 12 -14 6 -15 5 -6 -5z"/>
<path d="M3330 2390 c0 -5 5 -10 11 -10 5 0 7 5 4 10 -3 6 -8 10 -11 10 -2 0
-4 -4 -4 -10z"/>
<path d="M2545 2380 c-3 -5 -1 -10 4 -10 6 0 11 5 11 10 0 6 -2 10 -4 10 -3 0
-8 -4 -11 -10z"/>
<path d="M2968 2383 c7 -3 16 -2 19 1 4 3 -2 6 -13 5 -11 0 -14 -3 -6 -6z"/>
<path d="M2475 2370 c3 -5 8 -10 11 -10 2 0 4 5 4 10 0 6 -5 10 -11 10 -5 0
-7 -4 -4 -10z"/>
</g>
</svg>
